<svg width="92" height="27" viewBox="0 0 92 27" fill="none" xmlns="http://www.w3.org/2000/svg">
<path d="M9.342 7.364V9.83H4.194V12.494H8.046V14.888H4.194V20H1.116V7.364H9.342ZM15.5318 20.144C14.5478 20.144 13.6598 19.934 12.8678 19.514C12.0878 19.094 11.4698 18.494 11.0138 17.714C10.5698 16.934 10.3478 16.022 10.3478 14.978C10.3478 13.946 10.5758 13.04 11.0317 12.26C11.4878 11.468 12.1118 10.862 12.9038 10.442C13.6958 10.022 14.5838 9.812 15.5678 9.812C16.5518 9.812 17.4398 10.022 18.2318 10.442C19.0238 10.862 19.6478 11.468 20.1038 12.26C20.5598 13.04 20.7878 13.946 20.7878 14.978C20.7878 16.01 20.5538 16.922 20.0858 17.714C19.6298 18.494 18.9998 19.094 18.1958 19.514C17.4038 19.934 16.5158 20.144 15.5318 20.144ZM15.5318 17.48C16.1198 17.48 16.6178 17.264 17.0258 16.832C17.4458 16.4 17.6558 15.782 17.6558 14.978C17.6558 14.174 17.4518 13.556 17.0438 13.124C16.6478 12.692 16.1558 12.476 15.5678 12.476C14.9678 12.476 14.4698 12.692 14.0738 13.124C13.6778 13.544 13.4798 14.162 13.4798 14.978C13.4798 15.782 13.6718 16.4 14.0558 16.832C14.4518 17.264 14.9438 17.48 15.5318 17.48ZM26.9927 20.144C26.0087 20.144 25.1207 19.934 24.3287 19.514C23.5487 19.094 22.9307 18.494 22.4747 17.714C22.0307 16.934 21.8087 16.022 21.8087 14.978C21.8087 13.946 22.0367 13.04 22.4927 12.26C22.9487 11.468 23.5727 10.862 24.3647 10.442C25.1567 10.022 26.0447 9.812 27.0287 9.812C28.0127 9.812 28.9007 10.022 29.6927 10.442C30.4847 10.862 31.1087 11.468 31.5647 12.26C32.0207 13.04 32.2487 13.946 32.2487 14.978C32.2487 16.01 32.0147 16.922 31.5467 17.714C31.0907 18.494 30.4607 19.094 29.6567 19.514C28.8647 19.934 27.9767 20.144 26.9927 20.144ZM26.9927 17.48C27.5807 17.48 28.0787 17.264 28.4867 16.832C28.9067 16.4 29.1167 15.782 29.1167 14.978C29.1167 14.174 28.9127 13.556 28.5047 13.124C28.1087 12.692 27.6167 12.476 27.0287 12.476C26.4287 12.476 25.9307 12.692 25.5347 13.124C25.1387 13.544 24.9407 14.162 24.9407 14.978C24.9407 15.782 25.1327 16.4 25.5167 16.832C25.9127 17.264 26.4047 17.48 26.9927 17.48ZM33.2696 14.96C33.2696 13.928 33.4616 13.022 33.8456 12.242C34.2416 11.462 34.7756 10.862 35.4476 10.442C36.1196 10.022 36.8696 9.812 37.6976 9.812C38.3576 9.812 38.9576 9.95 39.4976 10.226C40.0496 10.502 40.4816 10.874 40.7936 11.342V6.68H43.8716V20H40.7936V18.56C40.5056 19.04 40.0916 19.424 39.5516 19.712C39.0236 20 38.4056 20.144 37.6976 20.144C36.8696 20.144 36.1196 19.934 35.4476 19.514C34.7756 19.082 34.2416 18.476 33.8456 17.696C33.4616 16.904 33.2696 15.992 33.2696 14.96ZM40.7936 14.978C40.7936 14.21 40.5776 13.604 40.1456 13.16C39.7256 12.716 39.2096 12.494 38.5976 12.494C37.9856 12.494 37.4636 12.716 37.0316 13.16C36.6116 13.592 36.4016 14.192 36.4016 14.96C36.4016 15.728 36.6116 16.34 37.0316 16.796C37.4636 17.24 37.9856 17.462 38.5976 17.462C39.2096 17.462 39.7256 17.24 40.1456 16.796C40.5776 16.352 40.7936 15.746 40.7936 14.978ZM57.7789 17.768H53.0629L52.3069 20H49.0849L53.6569 7.364H57.2209L61.7929 20H58.5349L57.7789 17.768ZM56.9869 15.392L55.4209 10.766L53.8729 15.392H56.9869ZM64.7144 8.912C64.1744 8.912 63.7304 8.756 63.3824 8.444C63.0464 8.12 62.8784 7.724 62.8784 7.256C62.8784 6.776 63.0464 6.38 63.3824 6.068C63.7304 5.744 64.1744 5.582 64.7144 5.582C65.2424 5.582 65.6744 5.744 66.0104 6.068C66.3584 6.38 66.5324 6.776 66.5324 7.256C66.5324 7.724 66.3584 8.12 66.0104 8.444C65.6744 8.756 65.2424 8.912 64.7144 8.912ZM66.2624 21.296C66.2624 22.532 65.9504 23.42 65.3264 23.96C64.7024 24.512 63.8324 24.788 62.7164 24.788H61.5104V22.178H62.2484C62.5844 22.178 62.8244 22.112 62.9684 21.98C63.1124 21.848 63.1844 21.632 63.1844 21.332V9.956H66.2624V21.296ZM67.8634 14.96C67.8634 13.928 68.0554 13.022 68.4394 12.242C68.8354 11.462 69.3694 10.862 70.0414 10.442C70.7134 10.022 71.4634 9.812 72.2914 9.812C72.9994 9.812 73.6174 9.956 74.1454 10.244C74.6854 10.532 75.0994 10.91 75.3874 11.378V9.956H78.4654V20H75.3874V18.578C75.0874 19.046 74.6674 19.424 74.1274 19.712C73.5994 20 72.9814 20.144 72.2734 20.144C71.4574 20.144 70.7134 19.934 70.0414 19.514C69.3694 19.082 68.8354 18.476 68.4394 17.696C68.0554 16.904 67.8634 15.992 67.8634 14.96ZM75.3874 14.978C75.3874 14.21 75.1714 13.604 74.7394 13.16C74.3194 12.716 73.8034 12.494 73.1914 12.494C72.5794 12.494 72.0574 12.716 71.6254 13.16C71.2054 13.592 70.9954 14.192 70.9954 14.96C70.9954 15.728 71.2054 16.34 71.6254 16.796C72.0574 17.24 72.5794 17.462 73.1914 17.462C73.8034 17.462 74.3194 17.24 74.7394 16.796C75.1714 16.352 75.3874 15.746 75.3874 14.978ZM86.8662 9.848C88.0182 9.848 88.9422 10.232 89.6382 11C90.3342 11.756 90.6822 12.8 90.6822 14.132V20H87.6222V14.546C87.6222 13.874 87.4482 13.352 87.1002 12.98C86.7522 12.608 86.2842 12.422 85.6962 12.422C85.1082 12.422 84.6402 12.608 84.2922 12.98C83.9442 13.352 83.7702 13.874 83.7702 14.546V20H80.6922V6.68H83.7702V11.306C84.0822 10.862 84.5082 10.508 85.0482 10.244C85.5882 9.98 86.1942 9.848 86.8662 9.848Z" fill="#333333"/>
<path d="M11 18C11 16.3431 8 10.5 8 10.5C8 10.5 5 16.3431 5 18C5 19.6569 6.34315 21 8 21C9.65685 21 11 19.6569 11 18Z" fill="white"/>
</svg>
